<?xml version="1.0" encoding="utf-8"?>
<!-- Generator: Adobe Illustrator 17.0.0, SVG Export Plug-In . SVG Version: 6.00 Build 0)  -->
<!DOCTYPE svg PUBLIC "-//W3C//DTD SVG 1.1//EN" "http://www.w3.org/Graphics/SVG/1.1/DTD/svg11.dtd">
<svg version="1.1" id="Layer_1" xmlns="http://www.w3.org/2000/svg" xmlns:xlink="http://www.w3.org/1999/xlink" x="0px" y="0px"
	 width="60px" height="60px" viewBox="0 0 60 60" enable-background="new 0 0 60 60" xml:space="preserve">
<g display="none">
	<g display="inline">
		<g>
			<polygon fill="#013C37" points="27.6,9.663 30.334,8.226 33.067,9.663 32.546,6.62 34.755,4.465 31.702,4.019 30.334,1.25 
				28.967,4.019 25.912,4.465 28.123,6.62 			"/>
		</g>
		<g>
			<g>
				<polygon fill="#013C37" points="41.669,22.66 42.655,22.66 30.334,10.339 22.477,18.195 				"/>
			</g>
			<g>
				<path fill="#013C37" d="M41.346,32.109l-2.293,0.404c0.374,0.222,0.642,0.617,0.642,1.087c0,0.707-0.575,1.279-1.281,1.279
					c-0.708,0-1.279-0.575-1.279-1.279c0-0.309,0.122-0.577,0.301-0.797l-3.989,0.708c0.985,0.086,1.764,0.883,1.764,1.889
					c0,1.061-0.86,1.918-1.917,1.918c-1.065,0-1.921-0.857-1.921-1.918c0-0.758,0.449-1.401,1.087-1.713l-5.038,0.893
					c0.346,0.175,0.591,0.529,0.591,0.942c0,0.591-0.476,1.068-1.067,1.068c-0.59,0-1.063-0.477-1.063-1.068
					c0-0.28,0.111-0.528,0.287-0.718l-11.595,2.057l-2.911,2.912l31.819,2.32l-1.701-1.701h7.851L41.346,32.109z"/>
			</g>
			<g>
				<path fill="#013C37" d="M20.712,30.72l-3.685,3.686l28.084-4.986l-5.104-5.102l-7.484-1.742c0.429,0.41,0.7,0.988,0.7,1.63
					c0,1.248-1.011,2.259-2.259,2.259c-1.247,0-2.254-1.011-2.254-2.259c0-1.016,0.672-1.862,1.593-2.145l-3.845-0.895
					c0.139,0.235,0.237,0.494,0.237,0.783c0,0.876-0.711,1.587-1.587,1.587c-0.873,0-1.584-0.711-1.584-1.587
					c0-0.551,0.299-1.015,0.728-1.299l-3.433-0.798l-2.809,2.809h4.304l-8.059,8.061h6.458V30.72z"/>
			</g>
			<g>
				<path fill="#013C37" d="M51.205,49.819l-5.575-5.576l-5.524-0.402c0.299,0.307,0.487,0.722,0.487,1.18
					c0,0.938-0.758,1.697-1.694,1.697c-0.936,0-1.691-0.759-1.691-1.697c0-0.557,0.291-1.03,0.71-1.336l-9.421-0.689
					c0.237,0.24,0.385,0.565,0.385,0.929c0,0.734-0.593,1.329-1.328,1.329c-0.732,0-1.325-0.593-1.325-1.329
					c0-0.441,0.228-0.812,0.561-1.053l-4.632-0.341c0.626,0.371,1.051,1.041,1.051,1.82c0,1.171-0.95,2.118-2.122,2.118
					c-1.168,0-2.117-0.946-2.117-2.118c0-0.883,0.54-1.638,1.307-1.957l-3.163-0.231L9.462,49.82h18.337l-1.456,8.085h7.981
					l-1.459-8.085L51.205,49.819L51.205,49.819z"/>
			</g>
		</g>
	</g>
</g>
<g display="none">
	<g display="inline">
		<path fill="#023C37" d="M30.014,9.375c-11.518,0-20.889,9.287-20.889,20.701c0,11.414,9.371,20.701,20.889,20.701
			c11.517,0,20.889-9.287,20.889-20.701C50.902,18.662,41.532,9.375,30.014,9.375z M39.332,25.338
			c0.009,0.205,0.014,0.412,0.014,0.619c0,6.296-4.835,13.554-13.68,13.554c-2.715,0-5.243-0.786-7.37-2.139
			c0.376,0.044,0.759,0.067,1.147,0.067c2.253,0,4.326-0.762,5.971-2.04c-2.103-0.038-3.88-1.416-4.491-3.31
			c0.293,0.055,0.595,0.086,0.904,0.086c0.438,0,0.864-0.057,1.267-0.166c-2.199-0.437-3.856-2.362-3.856-4.672
			c0-0.02,0-0.041,0.001-0.06c0.648,0.356,1.389,0.571,2.177,0.595c-1.289-0.853-2.138-2.312-2.138-3.965
			c0-0.874,0.236-1.693,0.65-2.396c2.37,2.883,5.914,4.78,9.909,4.98c-0.082-0.349-0.124-0.712-0.124-1.086
			c0-2.631,2.152-4.765,4.807-4.765c1.383,0,2.631,0.579,3.509,1.504c1.096-0.213,2.123-0.609,3.054-1.157
			c-0.362,1.113-1.122,2.046-2.117,2.637c0.973-0.115,1.902-0.37,2.761-0.75C41.087,23.829,40.272,24.669,39.332,25.338z"/>
	</g>
</g>
<g>
	<path fill="#033C37" d="M30.063,9.375c-11.563,0-20.938,9.321-20.938,20.819c0,10.312,7.548,18.852,17.446,20.506V34.537H21.52
		v-5.816h5.051v-4.289c0-4.976,3.057-7.688,7.522-7.688c2.138,0,3.976,0.158,4.51,0.228v5.201l-3.097,0.001
		c-2.428,0-2.896,1.147-2.896,2.83v3.712h5.793l-0.756,5.816h-5.037v16.305C42.969,49.585,51,40.827,51,30.188
		C51,18.696,41.626,9.375,30.063,9.375z"/>
</g>
</svg>
