<?xml version="1.0" encoding="utf-8"?>
<!-- Generator: Adobe Illustrator 17.0.0, SVG Export Plug-In . SVG Version: 6.00 Build 0)  -->
<!DOCTYPE svg PUBLIC "-//W3C//DTD SVG 1.1//EN" "http://www.w3.org/Graphics/SVG/1.1/DTD/svg11.dtd">
<svg version="1.1" id="Layer_1" xmlns="http://www.w3.org/2000/svg" xmlns:xlink="http://www.w3.org/1999/xlink" x="0px" y="0px"
	 width="341px" height="352px" viewBox="0 0 341 352" enable-background="new 0 0 341 352" xml:space="preserve">
<g>
	<path fill="#5E8435" d="M136.795,69.769c-2.522-1.234-6.044-1.727-7.943,0.926c-1.84,2.57-1.745,5.376,0.275,7.767
		c1.661,1.965,4.463,0.124,4.937-1.766c0.354-1.414-1.523-2.156-2.3-0.97c-0.372-0.636-0.743-1.271-1.115-1.907
		c6.139-1.214,7.738,0.562,4.8,5.328c-3.157,4.046-9.66,1.837-10.488-2.523c-0.266-1.401-0.966-3.562-2.639-3.924
		c-1.554-0.336-2.906-0.328-4.133,0.899c-0.754,0.753-0.939,1.503-1.196,2.484c-0.087,0.521-0.085,1.047,0.006,1.577
		c-1.97,1.053-3.289,0.783-3.956-0.812c-0.393-0.577-1.317-0.227-1.141,0.481c0.578,2.325,2.206,5.141,5.117,4.34
		c0.65-0.179,1.451-0.695,1.704-1.358c0.512-1.339,0.459-1.19,0.475-2.651l3.139-0.68c0.07,0.584,0.144,1.167,0.223,1.75
		c2.664,6.785,14.591,7.331,16.83-0.292C140.253,75.5,140.002,71.338,136.795,69.769z"/>
	<path fill="#68993D" d="M147.785,67.844c-2.664,0.772-4.222,2.029-5.091,4.693c-0.423,1.295-0.067,3.036,0.009,4.363
		c0.338,5.856-4.441,9.961-10.173,8.967c-0.902-0.156-1.21,1.017-0.373,1.354c4.545,1.831,8.614-0.274,11.299-4.055
		c1.533-2.158,1.753-5.074,1.697-7.615c-0.08-3.604,3.169-5.624,6.432-5.059c1.846,0.421,3.285,1.453,4.318,3.095
		c1.569,3.58,0.444,4.618-3.373,3.114c1.643-0.246,1.254-3.018-0.392-2.893c-5.363,0.408-5.545,5.931-1.806,8.756
		c4.854,3.667,9.134-3.656,8.916-7.512C158.957,69.922,152.407,66.505,147.785,67.844z"/>
	<path fill="#66AF3F" d="M149.993,53.199c-3.388-0.147-5.249,3.905-3.153,6.352c0.836,0.976,2.634-0.056,2.184-1.272
		c-0.616-1.665,0.852-2.312,2.271-1.671c1.807,0.817,1.269,3.192,0.599,4.456c-1.418,2.675-6.171,4.013-6.689-0.225
		c-0.277-2.268-2.14-3.431-4.29-3.427c-5.721,0.012-4.517,8.826-0.016,10.085c0.651,0.182,1.27-0.567,0.892-1.161
		c-0.75-1.178-1.732-2.102-2.211-3.453c-0.361-2.39,0.603-2.808,2.891-1.255c-0.002,0.395,0.029,0.788,0.092,1.177
		c0.443,2.052,1.757,3.161,3.739,3.703c3.808,1.042,7.79-2.623,8.986-5.855C156.677,56.906,153.653,53.359,149.993,53.199z"/>
	<path fill="#5E8435" d="M172.591,23.577c-0.73-0.227-1.714,0.199-2.303,0.58c-2.535-1.178-3.009-2.401-1.421-3.668
		c0.365-0.443,0.659-0.932,0.883-1.467c0.963-1.721,0.249-3.857-1.143-4.994c-0.702-0.573-1.755,0.135-1.287,0.993
		c1.443,2.641-3.962,6.931-3.967,10.262c-0.001,0.483,0.274,1.066,0.734,1.279c2.174,1.009,3.884,1.57,6.257,0.98
		c3.766-0.935,3.2,3.643,2.862,5.608c-0.324,2.07-1.627,3.233-3.909,3.49c-2.512-0.889-2.454-2.048,0.173-3.477
		c2.182,0.452,3.115-2.875,0.923-3.348c-4.15-0.897-9.508,1.542-6.522,6.639c3.312,5.655,9.491,4.577,12.062-0.766
		C177.709,31.996,177.039,24.961,172.591,23.577z"/>
	<path fill="#68993D" d="M177.329,39.563c-0.585,0.406-1.049,0.934-1.394,1.583c-2.449,3.091-5.701,1.369-8.351,0.652
		c-1.077-0.291-2.838-0.235-3.837,0.305c-0.972,0.525-2.314,1.273-2.541,2.522c-0.118,0.542-0.211,1.088-0.278,1.638
		c-1.143-0.33-2.286-0.661-3.43-0.991c-0.583-3.223,0.811-5.123,4.181-5.702c0.338,0.457,1.296,0.391,1.218-0.33
		c-0.387-3.581-3.708-3.438-6.012-1.509c-2.525,2.114-3.438,10.187-0.275,12.201c1.304,0.83,3.577,1.852,5.102,0.74
		c2.087-1.521,3.071-6.247,6.626-5.213c2.378,0.692,5.071,1.625,7.44,0.219c1.775-1.054,4.234-4.416,6.455-0.883
		c2.227,3.221,1.911,6.565-0.949,10.035c-2.827,2.228-3.94,1.253-3.34-2.926c1.675,1.745,4.32-0.907,2.648-2.649
		c-4.135-4.309-11.502,1.936-8.986,7.019c3.116,6.296,14.07,3.44,15.528-2.992C188.389,47.743,184.813,36.186,177.329,39.563z"/>
	<path fill="#7C993D" d="M207.193,66.353c-2.541-0.552-4.308-0.721-6.313,1.128c-3.04,2.805-5.948,4.909-10.219,5.154
		c-7.431,0.427-1.392-5.648,0.933-3.889c2.811,2.126,9.547,1.799,8.578-3.354c-1.117-5.939-5.755-12.677-12.266-8.395
		c-4.976,3.272-9.326,10.681-16.034,4.229c-1.64-1.578-3.955-2.915-6.224-1.586c-0.57,0.334-0.999,0.98-1.328,1.541
		c-1.387,2.368-5.081,5.506-4.017,0.174c1.078-5.401,6.553-5.158,6.589-10.585c0.006-0.953-1.359-1.107-1.629-0.22
		c-1.007,3.308-5.101,3.425-6.487,6.289c-1.127,2.329-1.694,4.612-1.979,7.182c-0.282,2.549,2.149,5.233,4.816,4.57
		c1.387-0.345,2.889-0.716,3.752-1.998c1.938-2.88,2.134-3.928,5.593-1.549c4.403,3.027,8.952,2.472,13.458-0.039
		c2.963-1.651,8.211-9.775,11.661-0.898c0.55,1.416-5.552-0.358-5.983-0.211c-3.194,1.086-7.313,4.087-7.313,7.794
		c0,4.112,7.103,4.753,9.778,4.6c2.235-0.128,4.281-1.233,6.195-2.282c1.164-0.638,2.399-1.724,3.426-2.548
		c1.731-0.265,3.462-0.531,5.193-0.796c4.671,7.776,4.323,10.24-1.044,7.392c2.476,0.29,2.435-3.564,0-3.863
		c-5.273-0.647-6.969,4.15-5.197,8.334c2.745,6.482,10.956,0.982,12.627-2.957C215.835,74.679,212.563,67.519,207.193,66.353z"/>
	<path fill="#66AF3F" d="M227.029,75.916c-1.452-0.007-2.764,0.102-3.954-0.898c-0.952-0.801-1.294-1.599-2.59-1.948
		c-2.518-0.679-4.293,1.731-5.015,3.751c-0.661,1.85-0.862,5.567,1.159,6.751c2.021,1.184,5.062,0.002,5.539-2.262
		c0.41-1.951-2.579-2.782-2.991-0.825c-0.203,0.275-0.452,0.398-0.736,0.403c-0.458-1.033-0.28-2.098,0.011-3.245
		c0.154-0.606,0.887-2.295,1.836-1.313c0.46,0.476,0.829,0.995,1.405,1.356c1.867,1.171,4.314,1.492,6.047-0.054
		C228.411,77.032,227.867,75.92,227.029,75.916z"/>
	<path fill="#68993D" d="M206.58,87.562c-1.598-0.84-3.23-1.027-4.883-1.817c-2.753-1.315-1.326-3.244-2.651-5.044
		c-1.659-2.254-3.844-2.845-6.611-2.655c-4.531,0.311-9.835,5.075-7.686,9.885c1.582,3.54,6.777,7.886,10.113,3.388
		c2.568-3.462,0.033-8.633-4.502-6.997c-1.949,0.703-1.186,3.707,0.866,3.141c-1.476,1.901-2.533,1.838-3.17-0.188
		c-2.45-3.984,3.473-5.865,5.605-6.015c2.197-0.155,3.088,3.926,4.134,5.306c1.877,2.475,5.739,3.691,8.581,2.545
		C207.002,88.861,207.297,87.939,206.58,87.562z"/>
	<path fill="#5E8435" d="M180.474,78.088c-0.809-7.001-10.671-14.228-16.829-7.949c-3.63,3.701-3.035,22.234-12.33,15.967
		c-4.359-2.939-5.764,2.306-9.847,2.982c-0.766,0.127-0.585,1.153,0,1.373c1.896,0.714,3.943,0.776,5.427-1.013
		c1.329-1.602,7.34,1.161,9.926,0.669c2.643-0.503,5.125-3.442,6.002-5.84c0.745-2.038,1.209-3.995,1.497-6.149
		c2.186-6.792,5.821-8.019,10.902-3.682c1.51,2.003,1.339,3.526-0.513,4.57c-2.148-7.564-9.789-2.957-7.966,3.767
		c0.773,2.851,4.501,5.235,7.415,4.6C178.985,86.332,181.028,82.886,180.474,78.088z"/>
	<path fill="#7C993D" d="M180.191,86.257c-1.497,1.07-3.134,2.354-4.633,3.339c-3.902,2.564-4.497-0.011-7.218-0.27
		c-2.108-0.201-4.513-0.059-6.09,1.643c-1.077,1.161-1.822,2.173-2.863,3.434c-1.357,1.644-3.903-0.938-5.108-1.268
		c-2.996-0.82-5.629-0.566-8.466,0.863c-4.689,2.361-8.13,5.463-6.89,11.235c1.07,4.98,4.818,10.69,10.638,10.639
		c4.089-0.036,9.492-2.204,9.967-6.985c0.424-4.27-4.109-10.925-9.308-9.052c-10.409,3.75,1.219,16.194,4.155,7.936
		c0.647-1.819-1.478-2.801-2.812-2.025c2.547-2.861,3.563-1.281,3.037,4.77c-4.234,2.717-7.77,2.114-10.609-1.807
		c-3.882-5.041-0.138-10.114,4.969-12.132c4.25-1.679,7.518,3.836,11.528,1.487c1.096-0.642,1.888-1.642,2.641-2.635
		c2.736-3.609,6.409-1.769,9.628-1.442c3.757,0.382,7.179-3.345,9.131-6.035C182.606,86.959,181.184,85.548,180.191,86.257z"/>
	<path fill="#5E8435" d="M129.486,129.609c-2.927-3.227-8.225-3.541-11.959-1.99c-1.499,0.622-2.32,1.883-3.062,3.242
		c-0.063,0.149-0.126,0.298-0.189,0.447c-0.303,2.317-1.881,2.656-4.734,1.014c0.724-1.314,1.652-2.536,2.058-4.013
		c0.738-2.684-0.522-7.12-3.972-7.12c-2.024,0-2.83,0.817-4.211,2.074c-0.865,0.787-1.322,2.159-1.795,3.204
		c-1.188,2.62-7.105,3.557-9.184,1.237c-0.374-0.417-1.104-0.194-1.239,0.327c-0.06,0.233-0.121,0.467-0.181,0.7
		c-0.137,0.529,0.098,0.975,0.52,1.279c2.392,1.72,8.734,3.527,11.178,0.677c0.394-0.426,0.766-0.87,1.114-1.332
		c0.236-0.394,0.473-0.788,0.709-1.183c0.453-1.973,1.401-1.794,2.845,0.538c-1.304,2.819-2.715,4.299-2.741,7.487
		c-0.034,4.178,4.365,4.881,7.363,3.8c1.301-0.469,2.983-1.994,3.755-3.159c0.841-1.267,1.058-1.749,1.62-3.142
		c0.901-1.025,1.802-2.051,2.703-3.076c4.787-0.636,6.634,0.497,5.553,3.39c-2.907-2.165-5.61-0.906-7.242,2.064
		c-1.789,3.255,0.981,6.822,3.574,8.451c3.006,1.889,8.346-0.186,9.688-3.353C133.508,136.806,132.644,133.09,129.486,129.609z"/>
	<path fill="#7C993D" d="M138.451,114.94c-2.824-3.777-4.577-6.487-3.44-11.312c0.609-2.587,1.765-4.065,1.37-6.74
		c-0.146-0.986-1.701-0.719-1.7,0.23c-0.11,0.36-0.221,0.72-0.331,1.08c-0.031,0.074,0.09,0.106,0.12,0.033
		c-0.983,2.358-2.866,5.032-3.214,8.352c-0.344,3.288,1.377,6.648,3.414,9.069c2.707,1.956,2.615,4.196-0.276,6.72
		c-1.294-0.141-2.545-0.445-3.755-0.914c-1.784-0.585-3.365-0.865-5.223-0.998c-2.222-0.159-4.793,0.565-6.935,0.851
		c-1.314-2.029-0.924-3.869,1.172-5.519c1.967-2.477,2.847-3.245,6.34-0.844c-2.039-1.401-4.014,1.964-1.94,3.318
		c6.471,4.226,9.733-7.06,3.002-9.949c-6.41-2.751-15.996,9.178-12.566,15.035c1.997,3.409,8.109,1.04,10.926,0.866
		c4.951-0.306,8.575,3.486,13.353,0.412C142.365,122.317,140.37,117.506,138.451,114.94z"/>
	<path fill="#66AF3F" d="M167.861,97.325c-2.724,0.916-6.02,2.658-6.034,6.002c-0.022,5.428,2.182,8.85-3.656,13.203
		c-3.776,2.816-8.034,2.602-12.379,2.112c-0.579-0.065-1.294,0.381-1.549,0.888c-2.391,4.768-2.673,10.859-10.044,9.5
		c-1.154-0.213-1.933,1.322-0.827,1.961c2.987,1.726,7.287,2.028,9.933-0.72c1.569-1.63,2.394-3.023,3.072-5.181
		c1.326-4.22,4.335-1.745,7.762-2.701c3.89-1.086,9.361-3.55,11.005-7.609c1.15-2.839,1.142-5.218,0.905-8.243
		c-0.327-4.168,3.149-5.86,6.873-5.094c0.889,0.4,1.778,0.8,2.668,1.199c4.251,4.072,4.243,6.237,0.006,6.511
		c0.62-0.567,0.929-1.475,0.394-2.315c-3.33-5.237-10.204,0.202-7.751,5.346c3.218,6.749,13.303,5.307,14.24-2.41
		C183.387,102.295,175.728,94.68,167.861,97.325z"/>
	<path fill="#7C993D" d="M194.672,125.29c-4.748-8.335-17.004,1.731-9.258,5.669c0.996,0.507,1.927,0.085,2.421-0.621
		c0.623,4.256-1.64,3.252-6.81-3.048c-0.448-4.546,2.231-5.684,5.232-7.302c1.723-0.929,2.817-2.078,3.767-3.758
		c0.811-1.435,0.382-3.36,0.152-4.874c-0.772-1.766-0.509-3.482,0.792-5.147c0.646-0.386,1.412-0.741,1.843-1.395
		c1.831-2.778,1.382-6.341-1.006-8.73c-0.706-0.706-2.137-1.312-3.178-1.13c-0.799,0.14-1.729,0.109-2.355,0.708
		c-2.637,2.519-2.745-1.403-2.084-3.368c0.307-0.911-1.011-1.714-1.646-0.959c-2.457,2.921-3.318,6.027-0.184,8.726
		c0.809,0.697,2.467,0.844,3.383,0.308c0.108-0.083,0.215-0.166,0.323-0.25c1.751-2.055,2.759-1.098,3.023,2.87
		c-0.765,0.429-1.431,0.628-1.914,1.344c-1.451,2.151-1.449,3.758-1.097,6.322c0.706,5.144-2.826,6.253-6.121,8.821
		c-4.116,3.208-3.007,10.166-0.974,14.068C183.547,142.312,199.011,132.908,194.672,125.29z"/>
	<path fill="#68993D" d="M212.587,141.033c1.357,2.99,4.155,4.548,7.469,3.637c5.374-1.478,12.385-10.518,7.644-15.841
		c-3.273-3.674-11.27-2.716-11.904,1.964c-1.859-0.439-4.294-1.552-5.801-1.71c-3.943-0.414-5.536-1.267-5.772-5.542
		c0.695-1.778,1.389-3.556,2.084-5.334c6.867-1.396,8.948-0.545,6.264,2.543c-0.098-0.647-0.522-1.233-1.374-1.454
		c-5.564-1.445-5.123,7.061,0.066,7.42c7.63,0.528,8.497-8.516,3.699-12.687c-6.895-5.994-14.098,3.287-14.753,9.512
		c-0.455,4.33,1.584,8.189,5.591,9.576c2.74,0.948,5.169-0.167,8.02,1.377c1.754,0.949,2.979,0.714,4.78,0.309
		c1.009-0.227,1.763-1.475,1.403-2.472c2.072-3.594,3.518-2.264,4.338,3.99c-1.007,1.976-6.156,7.831-8.621,2.882
		c-0.621-1.247-1.308-2.791-2.822-3.207c-3.55-0.976-5.196,2.315-5.492,5.184c-0.214,2.07,0.987,4.059,2.101,5.666
		c1.178,1.699,0.252,3.07,0.557,4.669c0.334,1.749,0.664,2.795,2.353,3.784c2.137,1.252,10.578,1.76,6.567,5.873
		c-0.746,0.765,0.224,2.098,1.158,1.501c1.966-1.257,3.439-3.107,2.741-5.645c-0.939-3.412-4.427-4.006-7.418-4.47
		c-2.91-0.451-0.499-3.159-0.933-4.393c-0.197-0.655-0.433-1.294-0.707-1.919c-0.096-0.125-0.193-0.25-0.289-0.374
		C209.973,142.488,209.658,140.876,212.587,141.033z"/>
	<path fill="#5E8435" d="M246.269,127.955c-0.193-0.189-0.387-0.378-0.58-0.567c-0.309-0.302-0.827-0.486-1.252-0.331
		c-1.565,0.57-2.621,1.385-4.017,2.327c-1.372,0.926-6.226,1.7-3.42-0.665c1.505-1.268,2.293-3.067,1.176-4.974
		c-1.528-2.608-4.881-2.883-7.547-3.001c-3.677-0.162-6.057-0.56-7.202-4.831c-0.35-1.304-0.986-2-1.948-2.865
		c-1.796-1.617-4.091,0.786-2.607,2.607c1.41,1.73,1.096,4.325,2.593,5.975c1.246,1.373,2.41,2.002,4.166,2.57
		c2.462,0.798,5.371,0.155,7.89,0.544c2.037,0.315-1.479,3.65-1.652,4.281c-0.814,2.96,1.695,4.624,4.184,5.05
		c3.643,0.623,8.072-3.012,10.217-5.556C246.408,128.355,246.435,128.116,246.269,127.955z"/>
	<path fill="#7C993D" d="M207.355,101.324c-0.803-3.03-4.255-2.457-6.399-1.708c-1.785,1.231-2.617,0.893-2.497-1.014
		c0.418-0.226,0.963-0.669,1.152-1.11c0.616-1.44,0.674-2.344,0.161-3.861c-0.335-0.992-1.62-0.736-1.736,0.235
		c-0.336,2.827-5.157,3.709-3.122,7.184c0.595,1.015,1.691,1.793,2.87,1.904c0.821,0.078,1.645,0.146,2.453-0.091
		c2.081-0.609,4.139,1.408,1.894,2.714c-2.748,1.599-8.145-0.525-9.255,3.51c-0.87,3.163,0.131,7.528,3.236,8.963
		c1.537,0.71,3.037-1.057,1.832-2.374c-1.215-1.091-1.793-2.434-1.735-4.031c-0.186-2.342,1.933-1.563,3.202-1.613
		c1.575-0.061,3.059-0.83,4.434-1.523C206.691,107.076,208.163,104.375,207.355,101.324z"/>
	<path fill="#66AF3F" d="M212.536,105.448c-2.104-0.355-4.856,0.863-4.901,3.263c-0.023,1.207,1.464,1.734,2.296,0.951
		c0.897-0.846,1.597-1.341,2.806-0.673c1.037,0.573,1.91,1.662,3.123,1.771c0.372,0.033,0.696-0.279,0.799-0.609
		C217.368,107.896,214.431,105.768,212.536,105.448z"/>
	<path fill="#5E8435" d="M205.673,139.782c-2.982-9.174-14.002-4.669-17.151,1.857c-2.484,5.148-1.976,16.208,6.365,13.195
		c4.697-1.697,8.569-13.777,0.883-12.735c-0.606,0.082-1.13,0.727-1.28,1.28c-0.229,0.844-0.215,1.222-0.027,2.076
		c0.212,0.96,1.608,1.104,2.068,0.27c0.76-1.376-1.066,3.855-0.84,3.346c-0.986,2.221-4.949,1.825-4.959-0.723
		c-0.014-3.534,1.243-6.79,4.177-8.86c2.1-1.481,5.272-2.502,7.284,0.433c0.868,1.267,1.178,3.064,1.516,4.536
		c0.875,3.814,0.974,10.04-2.753,12.335c-0.218,0.134-0.224,0.565,0.079,0.606C208.92,158.466,207.032,143.964,205.673,139.782z"/>
	<path fill="#68993D" d="M171.382,132.811c-1.214-4.938-6.622-11.808-12.448-10.281c-3.061,0.802-7.138,2.073-9.493,4.331
		c-1.252,1.201-1.46,1.476-2.401,2.934c-2.48,3.841-3.115,3.706-7.098,4.128c-2.501,0.265-3.938,1.478-5.315,3.419
		c-0.377,0.531-0.344,1.973-0.384,2.39c-0.552,5.776-2.81,9.993-9.683,8.738c-0.237-0.116-0.51-0.162-0.81-0.066
		c-0.03,0.01-0.061,0.019-0.091,0.029c-1.222,0.389-1.146,1.982,0,2.401c4.028,1.47,9.108,0.914,11.792-2.872
		c1.527-2.154,2.139-4.065,2.394-6.658c0.448-4.553,5.402-3.676,8.786-5.02c1.61-0.64,2.522-2.099,3.148-3.632
		c3.509-8.586,15.173-6.714,17.919,1.174c2.17,6.235-2.512,11.627-8.041,13.747c-8.349,3.202-7.755-7.157-5.005-10.324
		c0.838,0.891,1.676,1.781,2.514,2.672c-0.669,0.477-1.235,1.064-1.697,1.762c-0.943,1.058-0.036,2.694,1.376,2.364
		c4.303-1.008,8.715-5.706,5.988-10.362c-2.973-5.075-9.441-1.07-12.1,1.962c-3.038,3.465-3.398,10.162,0.291,13.4
		c4.647,4.079,10.727,3.345,15.305-0.709C171.195,144.031,172.947,139.176,171.382,132.811z"/>
	<path fill="#66AF3F" d="M129.873,203.447c-1.949-7.988-14.076-4.502-16.795,0.772c-3.419,6.634,6.831,11.721,9.894,4.272
		c1.06-2.579-3.102-3.664-4.157-1.146c0.47-1.267,0.94-2.535,1.41-3.802c3.132-1.122,4.953,0.404,5.462,4.576
		c-0.656,3.432-3.818,5.659-6.853,6.758c-6.276,2.272-11.636-2.977-9.967-9.509c0.709-2.774,2.714-5.141,4.656-7.132
		c3.655-3.747,6.118-8.051,3.332-13.26c-2.923-5.466-6.044-8.627-12.435-7.628c-4.387,0.686-10.322,3.944-8.881,9.184
		c0.407,1.478,2.106,2.637,3.497,3.033c8.355,2.38-2.152,10.453-4.822,12.1c-4.379,2.701-11.592,2.042-9.967-5.619
		c0.303-1.43,1.001-2.967,0.958-4.476c-0.073-2.553-0.524-3.974-2.1-5.931c-1.919-2.382-9.424-2.284-10.989,0.471
		c-1.177,2.072-1.112,3.524-0.763,5.881c1.369,9.24-5.808,1.398-9.345-0.451c-0.806-0.421-1.786,0.688-1.017,1.318
		c3.294,2.697,5.023,6.164,9.401,7.207c3.206,0.764,4.691-2.389,4.683-5.122c0.075-0.749,0.053-1.492-0.067-2.228
		c-0.76-5.02,7.727-8.029,6.135,0.072c-0.446,2.271-1.976,5.343-1.048,7.749c1.34,3.477,4.272,6.599,8.366,6.52
		c7.914-0.154,18.022-7.039,18.439-15.511c0.082-1.672-0.989-2.901-1.924-4.107c-1.019-1.315-8.741-2.378-1.251-5.469
		c5.651-2.332,11.883,4.433,9.47,10.009c-1.048,2.423-4.053,4.119-5.513,6.325c-5.785,8.741-4.547,19.219,7.081,21.132
		C123.639,220.896,131.981,212.09,129.873,203.447z"/>
	<path fill="#68993D" d="M135.019,174.31c-7.35-0.62-10.458,14.594-1.832,12.614c1.814-0.416,1.71-3.081,0-3.555
		c-2.073-3.102-0.233-3.325,5.521-0.669c-0.559,3.148-2.153,5.491-4.781,7.031c-5.822,0.866-8.551-0.91-8.188-5.328
		c0.034-1.608,0.115-3.213,0.241-4.816c0.232-3.6-0.433-6.802-3.171-9.234c-5.763-5.116-15.444-4.286-21.923-1.501
		c-7.648,3.288-11.676,12.198-12.556,20.016c-0.619,5.501,4.642,11.992,8.882,5.639c0.289-0.434,0.231-1.009,0-1.447
		c-0.202-0.385-0.405-0.77-0.608-1.155c-0.252-0.478-1.031-0.488-1.28,0c-3.255-0.117-4.204-1.495-2.849-4.134
		c0.404-1.885,0.95-3.725,1.535-5.561c1.463-4.59,4.747-7.731,8.847-9.986c4.076-2.241,8.973-1.902,13.267-0.726
		c6.631,1.817,5.548,7.659,5.328,12.903c-0.411,9.817,9.536,14.039,16.65,7.692C144.279,186.583,145.373,175.184,135.019,174.31z"/>
	<path fill="#7C993D" d="M144.422,148.508c-4.753-0.042-8,1.784-10.823,5.507c-1.283,1.691-1.498,3.995-1.693,6.015
		c-2.461,4.183-5.392,5.561-8.794,4.134c-0.859-0.358-1.717-0.715-2.576-1.073c-2.591-7.231-1.322-8.691,3.808-4.378
		c-0.259,1.32,1.473,2.148,2.211,0.932c3.054-5.035-2.154-7.864-6.689-7.096c-4.825,0.818-7.241,7.63-3.912,11.203
		c3.6,3.863,11.902,6.978,16.564,3.079c2.279-1.906,2.841-3.914,3.169-6.802c0.829-7.3,8.344-9.792,13.676-5.127
		c4.027,3.523,2.416,18.25-4.905,7.224c0.881,1.326,3.453,0.983,3.272-0.886c-0.752-7.734-10.153-4.349-10.025,2.459
		c0.158,8.445,12.396,11.286,16.302,3.829C157.924,160.049,154.198,148.594,144.422,148.508z"/>
	<path fill="#68993D" d="M274.711,191.132c-0.679,0.794-1.393,1.556-2.142,2.286c-4.275,4.361-3.072,0.143-3.465-1.115
		c-0.443-1.417-0.875-2.705-2.115-3.646c-3.021-2.292-7.847-3.958-10.954-0.851c-2.29,2.29-0.156,5.73,1.359,7.653
		c4.959,6.289-0.576,9.007-5.845,10.886c-3.903,1.392-9.507,0.156-10.125-4.971c-0.385-3.197,10.953-13.073,7.758-1.772
		c0.645-2.282-2.866-3.236-3.536-0.975c-0.567,1.911-0.603,2.027,0.114,3.891c0.213,0.555,0.635,1.205,1.294,1.294
		c8.513,1.159,10.862-11.625,2.666-12.616c-11.291-1.366-16.2,13.745-5.769,18.489c5.726,2.604,24.728-4.215,18.918-12.674
		c-0.799-1.163-1.184-1.649-2.153-2.684c-0.365-0.365-0.729-0.73-1.094-1.095c3.442-4.356,5.636-4.011,6.581,1.034
		c0.066,1.487,0.395,2.934,1.8,3.757c3.296,1.931,7.219-3.258,8.377-5.601C276.891,191.388,275.559,190.185,274.711,191.132z"/>
	<path fill="#7C993D" d="M253.372,181.851c-5.195,3.326-14.065,6.513-18.541,0.183c-2.184-3.089-0.981-8.499,1.925-10.613
		c3.271-2.38,5.91,1.549,6.141,4.461c0,0.394,0.001,0.789,0.002,1.183c-3.021,2.812-4.079,2.969-3.173,0.47
		c2.298-0.828,1.32-4.508-1.017-3.687c-7.291,2.562-1.827,11.601,4.594,9.134c3.342-1.284,3.605-5.898,3.041-8.837
		c-0.777-4.049-2.893-6.454-7.023-7.006c-9.185-1.227-10.785,12.292-6.949,17.74c5.308,7.539,17.075,4.1,22.465-1.128
		C255.817,182.801,254.54,181.103,253.372,181.851z"/>
	<path fill="#66AF3F" d="M228.213,161.821c-3.269-3.009-4.788,3.405-4.84,5.222c-0.024,0.834,1.266,1.254,1.636,0.443
		c0.592-2.328,1.18-2.069,1.765,0.778c-0.713,3.764-3.313,4.697-7.802,2.797c-1.503-2.189-1.423-5.252-2.711-7.569
		c-1.805-3.246-3.99-4.919-7.756-5.072c-7.299-0.297-12.211,11.948-8.51,17.474c4.594,6.859,10.958,2.851,13.085-3.558
		c1.882-5.669-6.482-9.643-8.056-3.38c-0.595,2.369,2.976,3.351,3.649,1.006c-0.056,1.273-0.112,2.545-0.168,3.818
		c-5.016-0.001-6.811-1.832-5.385-5.494c0.716-3.843,6.636-10.999,10.26-1.818c1.097,2.778,1.487,5.355,3.246,7.841
		c2.882,4.072,7.799,3.285,10.803,0.034C230.428,171.1,231.69,165.022,228.213,161.821z"/>
	<path fill="#5E8435" d="M231.767,190.218c-1.028-2.349-5.141-0.622-4.154,1.751c2.439,5.86,6.419,15.419-2.401,18.423
		c-5.174,1.762-13.316-2.777-16.946-6.167c-4.103-3.832-1.271-9.188,2.376-11.542c3.926-2.534,0.877,4.32,0.71,4.734
		c-0.753,1.871-0.218,4.483,1.198,5.898c4.771,4.771,10-2.333,11.713-6.199c2.884-6.508,0.827-13.424-4.973-17.284
		c-2.393-1.593-5.363-1.513-8.027-0.956c-1.379,0.288-2.848,1.352-4.04,2.045c-5.06,2.941-11.148-0.721-13.077-5.492
		c-1.652-4.085,7.073-17.304-1.765-18.222c-4.739-0.492-7.627-3.041-7.886-7.788c-0.077-1.406-0.164-3.042-0.783-4.341
		c-1.166-2.449-2.54-4.005-5.3-4.412c-1.65-0.243-3.505,0.797-4.457,2.114c-3.906,5.403-5.6,13.977-14.687,11.433
		c-1.198-0.335-2.041,1.509-0.864,2.05c7.897,3.63,13.801-2.365,17.085-9.133c1.043-2.876,2.779-2.112,5.207,2.29
		c-0.012,1.262,0.084,2.516,0.288,3.762c0.206,1.707,0.923,2.82,1.876,4.169c1.655,2.343,9.871,3.247,9.348,5.938
		c-0.935,4.809-2.905,8.252-2.09,13.252c0.633,3.887,4.835,6.831,7.992,8.479c3.771,1.968,7.649,1.348,11.285-0.385
		c5.78-2.755,10.931-1.03,11.675,5.726c0.026,2.205-0.474,4.284-1.501,6.237l-3.866,2.019c0.646-1.301,1.311-2.593,1.994-3.875
		c3.893-7.411-4.74-7.914-9.304-5.909c-7.586,3.333-7.75,12.867-3.263,18.533c4.253,5.371,17.314,10.265,23.66,6.461
		C237.789,208.429,235.323,198.342,231.767,190.218z"/>
	<path fill="#7C993D" d="M228.167,200.104c-0.486-0.57-1.333-0.43-1.837,0c-1.163,0.99-0.8,2.529-1.404,3.784
		c-0.252,0.524-0.985,0.809-1.464,1.06c-0.796,0.417-1.53,0.815-2.137,1.494c-0.77,0.861-0.274,2.315,0.959,2.315
		c1.94,0,4.362-1.066,5.572-2.608C229.097,204.568,229.543,201.718,228.167,200.104z"/>
	<path fill="#68993D" d="M189.022,184.153c-1.364-3.189-3.636-5.896-7.071-7.005c-2.314-0.747-4.659-1.121-7.03-1.636
		c-3.902-1.587-5.38-4.247-4.434-7.978l0.977-2.701c7.556-3.552,10.087-2.909,7.595,1.93c-0.385-2.787-4.631-1.606-4.232,1.167
		c1.091,7.601,14.084,4.783,11.175-3.367c-3.382-9.476-16.352-9.234-19.265,0.15c-1.164,3.75-1.58,8.935,1.613,11.953
		c5.429,5.132,14.771,2.186,17.223,10.71c2.73,9.493-5.468,20.954-15.557,19.275c-6.598-1.098-9.639-8.36-8.774-14.286
		c0.597-4.088,4.078-6.973,8.03-7.494c1.622,0.572,3.244,1.144,4.866,1.715c3.276,6.427,2.162,8.533-3.329,6.331
		c0.316-0.065,0.6-0.272,0.665-0.616c0.906-4.778-5.71-6.284-7.731-2.041c-2.427,5.098,0.9,12.241,7.486,10.727
		c5.938-1.365,11.205-9.529,6.87-15.315c-4.639-6.19-12.205-5.725-17.518-0.552c-13.207,12.86,8.714,34.643,22.264,21.845
		C188.51,201.612,192.278,191.768,189.022,184.153z"/>
	<path fill="#5E8435" d="M147.588,176.267c-0.863,2.442-1.541,7.121,1.582,8.544c0.622,0.3,1.251,0.581,1.889,0.845
		c-0.456,1.238-0.912,2.475-1.369,3.713c-0.837-0.421-1.722-0.682-2.653-0.782c-2.112-0.417-3.671,1.241-4.856,2.652
		c-2.105,2.507-2.013,6.998,1.002,8.764c1.402,0.821,2.62,0.538,4.07,0.167c4.823-1.234,6.665,5.75,5.203,8.882
		c-0.599,0.795-1.198,1.591-1.797,2.386c-5.647,3.668-7.846,2.717-6.598-2.852c0.04,2.589,4.022,2.593,4.019,0
		c-0.011-9.099-13.095-5.678-10.678,1.941c3.476,10.961,15.24,7.722,19.213-0.968c1.49-3.259,0.146-7.778-2.193-10.296
		c-1.248-1.344-2.605-2.742-4.444-3.248c-0.726-0.2-1.695-0.333-2.421-0.097c-3.195,1.04-1.453-3.689,1.071-2.693
		c3.904,1.54,7.5-2.63,8.146-5.97c0.214-1.107-0.297-2.615-1.091-3.409c-0.569-0.569-1.333-1.078-2.102-1.326
		c-0.952-1.3-1.904-2.6-2.857-3.9c0.271-1.964,1.223-3.008,2.856-3.132c-2.487,5.205,6.912,6.232,7.317,0.097
		C161.56,165.536,149.965,169.542,147.588,176.267z"/>
	<path fill="#7C993D" d="M112.185,239.772c-3.866-1.216-12.481-0.205-12.042,5.68c0.358,4.798,4.746,7.85,8.71,4.152
		c1.944-1.813-0.907-4.566-2.883-2.883c0.813-1.113,1.626-2.225,2.439-3.338c2.57-0.255,4.245,0.961,5.027,3.646
		c0.209,4.742-3.535,10.56-9.116,9.369c-7.459-1.592-11.115-16.123-2.879-19.226c5.965-2.247,13.451-5.368,13.349-13.007
		c-0.089-6.61-7.153-4.758-10.367-2.284c-1.9,1.463-1.174-9.15-1.854-10.077c-2.735-3.729-4.706-0.905-9.062-2.868
		c-0.54-0.243-1.331,0.304-0.908,0.907c1.355,1.928,2.498,2.373,4.838,2.469c2.884,0.118-0.502,9.266,0.478,10.862
		c1.181,1.925,2.542,3.139,4.971,3.139c1.243,0,2.348-0.704,3.364-1.307c0.737-0.568,1.489-1.117,2.255-1.646
		c1.769,2.627,1.651,4.623-0.355,5.988c-5.281,5.144-15.861,3.945-15.728,13.963c0.08,6.068,3.265,13.921,9.305,16.431
		C113.917,264.81,124.553,243.662,112.185,239.772z"/>
	<path fill="#68993D" d="M69.329,239.364c-1.509,1.462-1.458,1.892-2.985,3.756c-1.587,1.938-3.56,2.044-5.673,3.068
		c-2.718,1.317-3.958,2.748-4.772,5.66c-0.668,2.39,0.131,5.192,0.666,7.508l0.393,1.768c1.117,4.809-0.764,5.467-5.641,1.974
		c0.667-1.156,1.484-2.637,1.312-4.04c-0.514-4.173-2.253-7.74-6.948-6.592c-1.387,0.339-2.664,2.351-3.115,3.563
		c-0.718,1.929-3.914,3.176-4.99,3.268c0.137-0.055,0.23-0.203,0.237-0.351c0.001-0.03,0.003-0.059,0.004-0.089
		c0.025-0.496-0.645-0.763-0.977-0.405c-0.087,0.094-0.175,0.188-0.262,0.282c-0.297,0.32-0.358,0.761-0.148,1.147
		c2.635,4.83,6.042,3.185,7.982-1.235c0.708-1.613,4.603,1.727,3.094,4.024c-0.403,0.614-0.826,2.023-0.523,2.792
		c1.276,3.238,3.332,4.627,6.796,5.176c5.739,0.909,7.674-6.278,6.815-10.517c-0.426-2.102-0.971-4.137-1.087-6.294
		c-0.164-3.068,5.685-5.113,7.915-6.61c2.453-1.648,4.098-4.083,3.989-6.991C71.371,239.167,70.11,238.607,69.329,239.364z"/>
	<path fill="#5E8435" d="M86.034,262.301c-0.847-7.964-6.977-14.539-15.212-12.85c-3.753,0.77-6.194,4.359-7.239,7.752
		c-1.87,6.069,4.411,11.378-2.959,15.888c-0.853,0.522-0.288,1.807,0.669,1.587c6.496-1.494,7.144-7.816,5.803-13.296
		c-0.913-3.73,1.233-7.14,4.69-8.435c3.761-1.408,7.038,1.489,8.698,4.508c1.548,2.814,2.602,6.585,1.221,9.671
		c-2.572,5.749-10.504-1.304-4.794-4.802c0.664-0.407,0.948-1.517,0.266-2.068c-1.908-1.542-4.205-1.18-5.714,0.934
		c-2.408,3.37-1.076,6.737,1.262,9.718c2.355,3.003,6.018,3.013,9.146,1.495C85.606,270.592,86.423,265.957,86.034,262.301z"/>
	<path fill="#66AF3F" d="M89.382,237.885c-3.013-2.785-8.554-2.025-8.3,2.857c0.049,0.936,0.571,1.526,1.415,1.859l0.286,0.113
		c0.422,0.167,1.122-0.009,1.404-0.371c0.271-0.348,0.56-0.648,0.681-1.088c0.462-1.681,1.36-1.033,2.426-0.114
		c0.923,0.795,0.559,2.354,0.101,3.249c-0.612,1.194-2.181,1.627-3.393,1.734c-4.932,0.432-6.895-5.086-5.612-8.922
		c0.488-1.46-1.493-2.001-2.286-0.964c-5.714,7.483,5.813,16.823,12.839,11.647C92.257,245.441,92.307,240.588,89.382,237.885z"/>
	<path fill="#5E8435" d="M101.848,227.494c-1.435-1.975-3.889-1.499-5.621,0.042c-0.576,0.513-3.832,4.382-2.316,1.866
		c0.64-1.062,1.434-2.439,1.129-3.742c-0.657-2.817-2.9-4.019-5.644-3.235c-2.974,0.849-2.573,8.201-5.609,7.129
		c-0.694-0.245-1.27,0.756-0.721,1.239c1.749,1.536,3.493,1.774,5.202,0.047c1.035-1.046,1.212-2.702,1.54-4.051
		c0.52,0.028,1.04,0.056,1.56,0.084c-0.333,0.5-0.665,0.999-0.998,1.499c-0.356,0.534-0.518,1.196-0.66,1.807
		c-0.483,2.087,1.013,4.251,3.217,4.251c1.374,0,2.468-0.881,3.42-1.753c1.136-1.039,1.696-2.272,3.265-2.868
		c0.821-0.312,1.101-0.237,1.824-0.74C101.909,228.739,102.238,228.031,101.848,227.494z"/>
	<path fill="#68993D" d="M96.348,259.017c-1.366-4.967-9.26,0.809-5.738-6.617c0.641-1.351-1.158-2.418-2.005-1.172
		c-1.422,2.092-2.837,5.973-0.651,8.159c1.201,1.201,1.933,1.207,3.479,1.074c1.942-0.167-1.037,3.533-1.531,4.639
		c-0.634,1.421-0.559,3.468-0.308,4.962c0.181,1.23,0.411,2.452,0.689,3.664c1.312,6.285-6.108,4.185-8.367,3.698
		c-4.435-0.958-10.225-3.762-14.027-0.235c-0.404,0.375-0.355,1.216,0.188,1.455c2.429,1.071,4.56,0.832,7.233,1.313
		c3.266,0.588,6.442,1.974,9.786,2.134c3.988,0.191,9.31-0.903,9.073-6.085c-0.214-4.668-2.492-8.346,1.006-12.683
		C96.068,262.216,96.747,260.468,96.348,259.017z"/>
	<path fill="#66AF3F" d="M113.248,262.859c-4.322-1.675-10.458-0.174-13.901,2.985c-1.952,1.791-3.101,3.574-3.545,6.204
		c-0.743,4.4,4.185,9.679-3.913,11.438c-0.806,0.175-0.576,1.342,0.187,1.379c6.122,0.3,8.578-3.631,7.221-9.291
		c-1.483-6.185,2.649-8.343,7.473-9.94c4.796-1.588,7.916,1.37,10.459,4.924c2.235,3.124,2.416,7.103,0.76,10.51
		c-4.159,8.56-17.926-3.689-6.745-4.536c-2.384,0.181-2.392,3.923,0,3.726c7.955-0.656,2.24-14.053-5.795-9.108
		c-8.66,5.33,2.506,21.32,11.504,15.655C126.135,281.024,122.91,266.604,113.248,262.859z"/>
	<path fill="#68993D" d="M193.396,187.591c-0.312-0.804-1.545-0.506-1.317,0.363c1.826,6.943-1.3,14.124-4.813,19.989
		c-2.501,4.175-6.513,6.857-11.365,7.211c-2.9,0.212-5.638-1.889-8.543-1.982c-4.636-0.148-8.295,1.129-11.92,3.966
		c-3.784,2.961-5.278,6.2-11.46,3.334c-2.621-1.215-4.703-2.288-7.584-2.712c-18.337-2.704-26.276,28.161-7.994,32.633
		c8.383,2.051,15.929-1.862,16.804-10.632c0.749-7.511-7.903-13.453-14.612-11.927c-6.54,1.487-6.742,12.221-0.459,14.187
		c2.4,0.751,5.511,0.974,7.011-1.586c1.253-2.139,0.062-4.453-1.967-5.346c-0.493-0.217-0.969-0.219-1.392-0.093
		c0.877-3.362,2.496-3.771,4.864-1.2c1.726,1.583,2.656,3.572,2.79,5.965c0.574,6.108-5.937,7.459-10.428,7.223
		c-11.552-0.609-10.858-15.506-5.118-21.838c6.259-6.905,13.51-1.864,20.341,0.214c3.539,1.077,6.817-1.218,9.356-3.331
		c3.197-2.661,5.265-4.719,9.806-5.262c3.156-0.377,5.566,1.495,8.555,1.747c4.765,0.401,8.386-1.14,12.071-4.086
		C193.317,208.597,196.705,196.112,193.396,187.591z"/>
	<path fill="#68993D" d="M247.198,231.107c-4.505-8.996-12.208-12.432-21.959-12.444c-7.59-0.009-17.798,0.321-22.917-6.518
		c-4.714-6.297-3.181-14.528-2.465-21.634c0.101-1-1.432-1.366-1.872-0.507c-3.951,7.715-2.311,18.554,2.597,25.477
		c5.361,7.561,18.837,6.755,26.788,6.835c8.034,0.081,14.133,4.563,16.902,12.021c2.576,6.938-3.969,17.127-10.578,19.326
		c-8.108,2.697-13.759-5.472-12.121-12.638c0.805-3.519,4.206-5.625,7.046-7.35c3.955-1.254,6.265,0.021,6.93,3.827
		c-0.018,1.334-0.037,2.667-0.056,4.001c-0.447,3.492-1.885,3.653-4.312,0.483c1.791-2.125-1.237-5.211-3.076-3.076
		c-3.75,4.354-2.82,13.833,4.932,11.701c7.619-2.096,8.163-12.21,5.053-17.911c-4.28-7.848-13.27-2.252-17.658,2.111
		c-5.655,5.623-3.87,15.383,1.602,20.253C235.645,267.183,253.899,244.492,247.198,231.107z"/>
	<path fill="#66AF3F" d="M257.068,245.49c-1.384,3.352,0.791,8.975,4.404,9.969c4.09,1.125,4.86-4.212,3.874-6.744
		c-0.641-1.646-3.464-1.593-3.315,0.449c0.318,2.796-0.087,1.916-1.213-2.639c0.994-1.946,2.608-2.447,4.844-1.501
		c3.408,3.076,4.033,6.152,1.876,9.228c-2.355,4.496-7.445,4.65-10.942,1.486c-5.723-5.176-1.267-15.993-1.19-22.557
		c0.147-12.441-11.325-12.202-19.919-15.921c-0.955-0.413-1.782,0.875-0.837,1.432c2.458,1.448,4.937,2.23,7.695,2.981
		c7.002,1.909,10.097,6.18,9.741,13.293c-0.392,7.831-3.258,14.077,0.586,21.578c5.28,10.305,19.51,3.951,20.097-5.982
		C273.293,241.732,260.782,236.496,257.068,245.49z"/>
	<path fill="#7C993D" d="M265.247,234.187c-1.133-1.556-3.358-1.234-4.751-0.201c-0.777,0.576-1.364,1.32-1.919,2.103
		c-0.605,0.855-1.371,1.654-1.885,2.561c-0.549,0.969,0.351,2.215,1.456,1.893c1.451-0.422,2.268-1.731,3.172-2.852
		c0.536-0.665,1.084-1.217,1.78-1.718c0.609-0.438,1.034-0.539,1.722-0.742C265.227,235.113,265.526,234.57,265.247,234.187z"/>
	<path fill="#7C993D" d="M298.508,242.365c-1.772-0.229-2.148,2.335-0.852,3.144c2.028,1.266,4.7,2.212,4.159,5.325
		c-0.617,3.552-3.441,2.623-5.306,3.947c-2.619,1.86-3.223,3.863-3.738,7.025c-0.994,6.11-7.124,9.536-12.631,6.83
		c-2.792-1.372-3.458-4.708-3.5-7.428c0.1-2.27,1.076-4.151,2.929-5.642c3.644-1.532,4.74-0.544,3.292,2.96
		c-0.495-0.551-0.644-0.601-1.599-0.764c-0.642-0.11-1.229,0.068-1.586,0.645c-1.413,2.285-0.336,7.677,3.26,7.277
		c5.081-0.566,7.09-5.505,6.054-10.13c-0.946-4.223-6.419-4.978-9.809-4.159c-4.747,1.147-7.068,7.484-6.415,11.796
		c2.01,13.29,18.387,13.182,23.286,1.804c0.536-1.244,0.727-2.545,0.956-3.87c0.602-3.476,2.498-2.715,4.402-3.856
		c1.944-1.165,4.04-2.928,4.525-5.299C307.048,246.528,303.794,243.049,298.508,242.365z"/>
	<path fill="#68993D" d="M266.113,264.251c-8.374-2.109-14.353,5.263-9.009,12.168c6.189,7.998-12.981,11.802-17.376,12.103
		c-7.251,0.496-12.731-5.7-9.262-12.607c1.682-3.348,5.681-4.703,9.122-4.217c4.487,0.634,7.349,6.362,1.743,8.235
		c2.53-0.845,1.515-4.64-1.105-4.007c-2.982,0.721-7.86,4.107-4.587,7.633c3.493,3.762,8.668,2.483,11.963-0.851
		c3.825-3.87,0.044-10.517-3.17-13.302c-4.019-3.483-11.405-2.351-14.969,1.236c-3.885,3.911-6.325,10.366-2.987,15.527
		c3.986,6.164,10.823,7.411,17.739,6.151c6.78-1.236,12.952-4.045,17.379-9.561c1.422-1.772,1.159-3.837,0.391-5.802
		c-0.297-0.759-0.786-1.426-1.307-2.049c-2.518-2.275-1.371-4.684,3.441-7.228c4.095,1.381,4.72,2.377,1.876,2.989
		c0.689-0.09,1.14-1.037,0.389-1.436c-5.1-2.709-6.755,5.216-1.244,7.018C271.361,278.286,273.004,265.987,266.113,264.251z"/>
	<path fill="#5E8435" d="M253.651,263.633c-0.063-0.763-1.203-1.015-1.399-0.189c-1.028-0.292-2.056-0.584-3.083-0.876
		c0.158-0.933,0.181-1.868,0.071-2.807c-0.036-0.729-0.506-1.454-0.799-2.077c-0.756-1.608-2.947-1.668-4.388-1.694
		c-2.014-0.037-3.897,1.947-5.146,3.212c-3.926,3.977-9.4,4.349-14.566,3.12c-7.1-1.688-8.642-10.916-16.459-11.246
		c-5.768-0.244-10.336,2.317-13.465,7.128c-5.455,8.385,2.989,21.902,12.944,19.064c3.499-0.998,6.743-5.773,6.105-9.41
		c-0.952-5.43-5.947-6.143-10.515-4.617c-2.461,0.822-1.39,4.745,1.073,3.894c3.929-1.357,7.611,10.681-2.555,5.729
		c-3.275-1.596-4.51-5.641-4.594-8.955c-0.09-3.537,2.54-6.094,5.247-7.775c5.493-3.412,9.752,0.738,12.841,4.802
		c4.204,5.533,11.61,6.438,17.997,5.545c3.35-0.468,6.236-2.318,8.562-4.664c5.062-5.105,3.245,2.804,4.961,4.742
		C249.449,269.904,254.03,268.202,253.651,263.633z"/>
	<path fill="#7C993D" d="M218.476,283.032c-5.6,1.861,1.124-3.206,2.281-4.146c1.003-0.815,1.965-2.839,1.989-4.081
		c0.058-3.047-1.3-5.846-4.209-7.054c-1.282-0.532-2.438,1.49-1.367,2.348c6.385,5.109-3.881,6.546-4.639,10.213
		c-0.658,3.183-0.201,6.848,3.76,6.978c2.568,0.084,4.506,1.895,0.205,3.159c-4.067,1.195-9.128,0.892-9.014-4.091
		c0.09-3.961-2.672-7.794-6.415-8.951c-3.796-1.173-6.704-1.487-8.878,2.049c-1.109,1.803-0.754,4.305-0.716,6.284
		c0.127,6.515-3.976,7.571-9.715,6.516c-3.805-0.699-6.897-2.683-9.263-5.634c-4.723-5.888,4.984-17.006,9.844-10.687
		c2.182,2.837,4.397,7.847-0.512,8.02c-4.161,0.147-1.449-1.007,0.012-1.633c2.17-0.93,0.488-3.85-1.488-3.53
		c-7.475,1.209-5.9,9.619,1.476,9.486c2.756-0.05,5.983-0.48,6.874-3.414c1.2-3.947-1.084-8.833-3.378-11.827
		c-5.13-6.696-17.856-0.605-18.233,6.962c-0.491,9.848,7.459,16.909,17.406,16.961c3.747,0.02,7.829-0.765,10.15-3.992
		c1.194-1.659,1.79-2.653,1.477-4.795c-0.275-1.88-0.547-3.737-0.558-5.64c-0.021-3.534,5.874-0.873,6.763,0.891
		c1.598,3.169,0.563,6.217,2.829,9.204c2.632,3.471,8.815,2.884,12.411,1.71c2.059-0.672,5.318-2.328,5.349-4.949
		C222.942,287.253,222.062,281.841,218.476,283.032z"/>
	<path fill="#7C993D" d="M211.802,231.091c-3.305-12.015-26.538-6.567-21.309,2.431c2.258,3.885,6.52,6.985,10.922,4.006
		c2.563-1.735,2.934-7.852-1.199-7.603c-2.802,0.169-2.851,4.408,0,4.389c-2.118,0.507-3.768,0.036-4.951-1.412
		c-2.68-4.001,3.708-4.483,5.454-4.481c4.912,0.007,7.751,2.666,6.551,7.663c-2.031,8.452-10.775,10.207-17.725,6.628
		c-9.052-4.661-7.013-14.755-0.848-20.344c3.993-3.62,6.526-4.55,5.845-10.484c-0.012,0.002-0.025,0.003-0.037,0.005
		c-0.008-1.402-2.143-1.611-2.346-0.005c-0.708,5.606-5.857,6.599-8.683,10.428c-1.854,2.512-3.434,4.995-4.387,7.992
		c-1.833,5.764,4.242,12.867,8.469,15.808c5.338,3.715,12.675,3.344,17.912-0.16C209.686,243.13,213.202,236.181,211.802,231.091z"
		/>
	<path fill="#5E8435" d="M225.419,224.105c-0.936,0.072-1.7,0.324-2.576,0.647c-0.849,0.312-1.751,1.094-2.655,1.148
		c-1.29,0.077-3.615-2.237-4.465-0.223c-0.036,0.085-0.072,0.171-0.108,0.256c-0.216,0.513,0.077,1.071,0.385,1.456
		c1.196,1.495,3.264,2.498,5.202,2.164c0.812-0.14,1.51-0.472,2.231-0.861c0.941-0.508,1.997-0.664,2.877-1.294
		C227.603,226.474,227.337,223.957,225.419,224.105z"/>
	<path fill="#66AF3F" d="M164.58,232.22c-2.07,0.569-3.104,1.855-4.343,3.453c-0.675,0.871-0.765,1.722-1.099,2.853
		c-0.136,0.87-0.179,1.747-0.13,2.632c-3.039,2.267-4.186,1.7-3.442-1.702c0.01-6.508,3.817-9.179,8.672-12.636
		c4.583-3.264,8.525,2.589,10.177,6.023c0.169,0.351,0.632,0.6,1.014,0.582l0.129-0.006c1.055-0.052,1.66-1.596,0.576-2.127
		c1.094,0.536-1.848-5.885-2.389-6.482c-2.183-2.413-6.571-4.295-9.772-2.569c-7.743,4.176-13.756,10.279-12.357,19.63
		c0.543,3.632,2.09,5.876,5.868,6.421c2.747,0.397,5.596-2.267,5.557-5.055c-0.047-3.322,0.101-9.614,6.197-5.902
		c3.501,2.132,4.731,7.384,2.888,10.934c-3.024,5.827-13.727,8.89-18.457,3.834c-1.983-2.119-3.423-5.859-6.967-4.725
		c-4.376,1.401-1.995,7.858-8.102,8.209c-3.672,0.211-9.077-3.876-12.658-1.194c-3.652,2.735-3.47,4.75-4.463,8.789
		c-1.831,7.45,6.658,13.325,13.174,11.091c7.19-2.466,2.581-11.491-3.487-11.226c-2.228,0.097-2.828,2.793-1.088,4.016
		c0.076,0.053,0.151,0.106,0.227,0.159c0.671,0.471,1.328,0.472,1.868,0.209c1.18,0.184,2.703,0.777,1.323,2.503
		c-1.875,2.345-6.121-0.901-7.09-2.697c-0.898-1.665-0.465-3.378-0.477-5.083c-0.043-6.097,6.223-3.652,8.779-2.8
		c3.868,1.291,8.988,0.836,11.543-2.718c1.828-2.542,1.585-4.302,4.308-1.425c2.166,2.288,3.916,3.244,7.111,3.723
		c6.567,0.984,13.163-2.042,17.226-7.066C180.339,245.14,174.664,229.446,164.58,232.22z"/>
	<path fill="#5E8435" d="M162.284,263.878c-6.967-6.524-20.021-1.776-20.655,7.607c-0.353,5.22,3.387,9.084,2.588,14.533
		c-0.776,5.301-8.146,6.909-12.311,5.259l-3.257-7.944c1.495-1.989,3.292-2.84,5.389-2.552c3.62,0.124,3.084,6.594,0.085,5.819
		c1.606,0.415,2.609-1.859,1.135-2.692c-2.957-1.672-4.912,1.536-3.387,4.14c1.92,3.277,7.971,0.716,8.045-2.667
		c0.112-5.121-1.669-8.074-7.049-8.346c-6.902-0.348-9.291,7.026-8.291,12.582c1.082,6.013,10.655,6.571,15.029,5.612
		c6.309-1.383,8.892-7.404,8.96-13.143c0.07-5.925-7.066-13.238,2.078-16.237c4.077-1.337,10.044-0.205,10.617,4.809
		c0.36,3.153-0.656,7.157-4.287,7.514c-1.471,0.072-2.719-0.391-3.746-1.387c-0.699-3.463-0.313-4.114,1.157-1.954
		c1.201,1.481,3.06-0.187,2.837-1.651c-0.517-3.39-4.714-5.747-7.659-2.802c-3.12,3.12-1.921,9.372,2.348,10.973
		c5.156,1.933,9.458,1.427,12.308-3.483C166.745,273.511,165.885,267.249,162.284,263.878z"/>
	<path fill="#68993D" d="M164.618,291.842c-0.604,0.823-0.322,2.43-0.309,3.352c0.017,1.182-0.582,2.497-1.322,3.418
		c-2.668,3.319-9.097,0.49-10.272-2.775c-0.759-2.109-0.48-9.016,2.619-9.209c1.662-0.104,3.395,0.529,4.434,1.787
		c1.08,1.307-1.7,4.154-1.727,2.174c-0.008-0.576-0.632-1.192-1.239-0.943c-3.631,1.489,0.672,6.02,3.81,4.182
		c3.691-2.162,2.528-8.057-0.894-9.733c-1.79-0.877-5.254-1.682-7.085-0.509c-2.029,1.3-2.85,3.455-3.444,5.735
		c-1.413,5.415,0.262,11.735,6.008,13.524c2.822,0.879,5.524,1.096,8.312-0.001c2.663-1.048,3.386-3.139,4.561-5.44
		C169.363,294.877,167.644,287.72,164.618,291.842z"/>
	<path fill="#68993D" d="M192.286,268.511c-0.665-2.884-4.572-3.876-4.207-7.007c0.219-1.882,2.08-2.873,2.189-4.907
		c0.22-4.122-2.244-8.62-6.83-8.814c-4.348-0.184-6.967,3.002-8.471,6.693c-0.752,1.847,0.143,5.165,0.469,7.086
		c0.402,2.371-0.173,4.108-2.857,3.654c-1.088-0.184-1.953-3.514-0.834-4.056c0.716-0.347,0.725-1.56,0-1.903
		c-3.895-1.849-4.184,6.129-2.308,8.005c3.952,3.952,9.683-0.05,9.686-4.724c0.003-3.389-2.493-7.853,1.399-10.212
		c2.224-1.349,4.725-1.256,5.754,1.668c0.274,0.89,0.286,1.776,0.035,2.659c0.219-0.964-0.255-0.054-0.514,0.322
		c-1.242,1.806-2.73,4.88-1.911,7.182c1.114,3.13,3.163,4.598,5.977,6.215C191.157,271.116,192.608,269.905,192.286,268.511z"/>
	<path fill="#6D3E2C" d="M191.591,304.898c-5.123-5.452-14.412-6.477-20.133-1.629c-2.315,1.962-4.053,4.765-5.546,7.368
		c-2.169,3.781-0.545,8.323-2.498,11.955c-2.608,4.848-12.438,2.934-12.141-2.853c0.114-2.228,0.573-9.136,4.84-7.223
		c2.696,1.559,2.949,3.66,0.76,6.301c-0.333-0.314-0.306-0.446-0.492-0.058c0.453-0.946-0.925-2.02-1.574-1.091
		c-0.068,0.097-0.135,0.194-0.203,0.29c-0.272,0.39-0.338,0.77-0.103,1.202c1.482,2.721,4.339,4.178,6.799,1.466
		c2.851-3.144-0.489-9.519-3.615-11.158c-9.628-5.048-13.946,13.354-5.709,17.983c4.29,2.411,10.158,2.345,13.726-1.588
		c1.231-1.357,2.191-3.257,2.208-5.094c0.046-4.966,1.239-9.826,4.974-13.351c6.935-6.545,18.681-1.717,19.236,8.003
		c0.318,5.581-5.937,10.143-11.176,9.141c-2.544-0.487-5.883-3.534-5.665-6.281c0.257-4.611,2.9-6.335,7.929-5.174
		c1.386,1.881,1.207,3.304-0.538,4.268c1.137-2.57-2.72-4.601-3.902-2.012c-2.431,5.327,4.968,7.696,8.351,4.168
		c5.441-5.676-2.333-12.295-8.136-11.579c-3.395,0.419-6.309,3.685-7.586,6.598c-1.76,4.015,0.218,7.571,2.613,10.685
		c4.648,6.044,15.199,4.645,19.319-1.314C197.863,317.362,197.01,310.665,191.591,304.898z"/>
</g>
</svg>
