<?xml version="1.0" encoding="utf-8"?>
<!-- Generator: Adobe Illustrator 17.0.0, SVG Export Plug-In . SVG Version: 6.00 Build 0)  -->
<!DOCTYPE svg PUBLIC "-//W3C//DTD SVG 1.1//EN" "http://www.w3.org/Graphics/SVG/1.1/DTD/svg11.dtd">
<svg version="1.1" id="Layer_1" xmlns="http://www.w3.org/2000/svg" xmlns:xlink="http://www.w3.org/1999/xlink" x="0px" y="0px"
	 width="60px" height="60px" viewBox="0 0 60 60" enable-background="new 0 0 60 60" xml:space="preserve">
<g>
	<g>
		<g>
			<polygon fill="#013C37" points="27.6,9.663 30.334,8.226 33.067,9.663 32.546,6.62 34.755,4.465 31.702,4.019 30.334,1.25 
				28.967,4.019 25.912,4.465 28.123,6.62 			"/>
		</g>
		<g>
			<g>
				<polygon fill="#013C37" points="41.669,22.66 42.655,22.66 30.334,10.339 22.477,18.195 				"/>
			</g>
			<g>
				<path fill="#013C37" d="M41.346,32.109l-2.293,0.404c0.374,0.222,0.642,0.617,0.642,1.087c0,0.707-0.575,1.279-1.281,1.279
					c-0.708,0-1.279-0.575-1.279-1.279c0-0.309,0.122-0.577,0.301-0.797l-3.989,0.708c0.985,0.086,1.764,0.883,1.764,1.889
					c0,1.061-0.86,1.918-1.917,1.918c-1.065,0-1.921-0.857-1.921-1.918c0-0.758,0.449-1.401,1.087-1.713l-5.038,0.893
					c0.346,0.175,0.591,0.529,0.591,0.942c0,0.591-0.476,1.068-1.067,1.068c-0.59,0-1.063-0.477-1.063-1.068
					c0-0.28,0.111-0.528,0.287-0.718l-11.595,2.057l-2.911,2.912l31.819,2.32l-1.701-1.701h7.851L41.346,32.109z"/>
			</g>
			<g>
				<path fill="#013C37" d="M20.712,30.72l-3.685,3.686l28.084-4.986l-5.104-5.102l-7.484-1.742c0.429,0.41,0.7,0.988,0.7,1.63
					c0,1.248-1.011,2.259-2.259,2.259c-1.247,0-2.254-1.011-2.254-2.259c0-1.016,0.672-1.862,1.593-2.145l-3.845-0.895
					c0.139,0.235,0.237,0.494,0.237,0.783c0,0.876-0.711,1.587-1.587,1.587c-0.873,0-1.584-0.711-1.584-1.587
					c0-0.551,0.299-1.015,0.728-1.299l-3.433-0.798l-2.809,2.809h4.304l-8.059,8.061h6.458V30.72z"/>
			</g>
			<g>
				<path fill="#013C37" d="M51.205,49.819l-5.575-5.576l-5.524-0.402c0.299,0.307,0.487,0.722,0.487,1.18
					c0,0.938-0.758,1.697-1.694,1.697c-0.936,0-1.691-0.759-1.691-1.697c0-0.557,0.291-1.03,0.71-1.336l-9.421-0.689
					c0.237,0.24,0.385,0.565,0.385,0.929c0,0.734-0.593,1.329-1.328,1.329c-0.732,0-1.325-0.593-1.325-1.329
					c0-0.441,0.228-0.812,0.561-1.053l-4.632-0.341c0.626,0.371,1.051,1.041,1.051,1.82c0,1.171-0.95,2.118-2.122,2.118
					c-1.168,0-2.117-0.946-2.117-2.118c0-0.883,0.54-1.638,1.307-1.957l-3.163-0.231L9.462,49.82h18.337l-1.456,8.085h7.981
					l-1.459-8.085L51.205,49.819L51.205,49.819z"/>
			</g>
		</g>
	</g>
</g>
</svg>
